HIERARCHY
ROOT Hips
{
	OFFSET 0.000000 0.000000 0.000000
	CHANNELS 6 Xposition Yposition Zposition Xrotation Yrotation Zrotation
	JOINT LeftUpLeg_virtual
	{
		OFFSET 0.000000 0.000000 0.000000
		CHANNELS 3 Xrotation Yrotation Zrotation
		JOINT LeftUpLeg
		{
			OFFSET 10.205400 -3.823500 0.155100
			CHANNELS 3 Xrotation Yrotation Zrotation
			JOINT LeftLeg
			{
				OFFSET 0.708757 -12.982077 0.567790
				CHANNELS 3 Xrotation Yrotation Zrotation
				JOINT LeftFoot
				{
					OFFSET -0.708756 -10.717838 -2.184338
					CHANNELS 3 Xrotation Yrotation Zrotation
					JOINT LeftToeBase
					{
						OFFSET 0.108149 -7.191104 7.560241
						CHANNELS 3 Xrotation Yrotation Zrotation
						JOINT LeftToe_End
						{
							OFFSET 0.070230 0.081724 4.490308
							CHANNELS 3 Xrotation Yrotation Zrotation
							End Site
							{
								OFFSET 0 0 0
							}
						}
					}
				}
			}
		}
	}
	JOINT RightUpLeg_virtual
	{
		OFFSET 0.000000 0.000000 0.000000
		CHANNELS 3 Xrotation Yrotation Zrotation
		JOINT RightUpLeg
		{
			OFFSET -10.205400 -3.823500 0.005500
			CHANNELS 3 Xrotation Yrotation Zrotation
			JOINT RightLeg
			{
				OFFSET -0.708756 -12.982134 0.610632
				CHANNELS 3 Xrotation Yrotation Zrotation
				JOINT RightFoot
				{
					OFFSET 0.708754 -10.717769 -1.945823
					CHANNELS 3 Xrotation Yrotation Zrotation
					JOINT RightToeBase
					{
						OFFSET -0.108140 -7.191069 7.372968
						CHANNELS 3 Xrotation Yrotation Zrotation
						JOINT RightToe_End
						{
							OFFSET -0.070227 0.081735 4.479403
							CHANNELS 3 Xrotation Yrotation Zrotation
							End Site
							{
								OFFSET 0 0 0
							}
						}
					}
				}
			}
		}
	}
	JOINT Spine_virtual
	{
		OFFSET 0.000000 0.000000 0.000000
		CHANNELS 3 Xrotation Yrotation Zrotation
		JOINT Spine
		{
			OFFSET 0.000000 6.876099 0.125700
			CHANNELS 3 Xrotation Yrotation Zrotation
			JOINT Spine1
			{
				OFFSET 0.000000 5.730043 0.104720
				CHANNELS 3 Xrotation Yrotation Zrotation
				JOINT Spine1_split
				{
					OFFSET 0.000000 5.730043 0.104720
					CHANNELS 3 Xrotation Yrotation Zrotation
					JOINT Spine2
					{
						OFFSET 0.000000 5.730043 0.104720
						CHANNELS 3 Xrotation Yrotation Zrotation
						JOINT Neck_virtual
						{
							OFFSET 0.000000 0.000000 0.000000
							CHANNELS 3 Xrotation Yrotation Zrotation
							JOINT Neck
							{
								OFFSET 0.000000 10.314075 0.188496
								CHANNELS 3 Xrotation Yrotation Zrotation
								JOINT Head
								{
									OFFSET 0.000000 7.643700 -2.377400
									CHANNELS 3 Xrotation Yrotation Zrotation
									JOINT HeadTop_End
									{
										OFFSET 0.000000 43.788605 -13.619600
										CHANNELS 3 Xrotation Yrotation Zrotation
										End Site
										{
											OFFSET 0 0 0
										}
									}
								}
							}
						}
						JOINT LeftShoulder_virtual
						{
							OFFSET 0.000000 0.000000 0.000000
							CHANNELS 3 Xrotation Yrotation Zrotation
							JOINT LeftShoulder
							{
								OFFSET 2.196100 4.412489 0.087492
								CHANNELS 3 Xrotation Yrotation Zrotation
								JOINT LeftShoulder_split
								{
									OFFSET 2.196100 4.412489 0.087492
									CHANNELS 3 Xrotation Yrotation Zrotation
									JOINT LeftArm
									{
										OFFSET 8.771219 -2.981674 -0.026999
										CHANNELS 3 Xrotation Yrotation Zrotation
										JOINT LeftForeArm
										{
											OFFSET 8.512804 0.000000 -0.000000
											CHANNELS 3 Xrotation Yrotation Zrotation
											JOINT LeftHand
											{
												OFFSET 18.484802 0.000000 -0.000000
												CHANNELS 3 Xrotation Yrotation Zrotation
												End Site
												{
													OFFSET 0 0 0
												}
											}
										}
									}
								}
							}
						}
						JOINT RightShoulder_virtual
						{
							OFFSET 0.000000 0.000000 0.000000
							CHANNELS 3 Xrotation Yrotation Zrotation
							JOINT RightShoulder
							{
								OFFSET -2.196100 4.412496 0.070690
								CHANNELS 3 Xrotation Yrotation Zrotation
								JOINT RightShoulder_split
								{
									OFFSET -2.196100 4.412496 0.070690
									CHANNELS 3 Xrotation Yrotation Zrotation
									JOINT RightArm
									{
										OFFSET -8.771282 -2.981682 -0.094208
										CHANNELS 3 Xrotation Yrotation Zrotation
										JOINT RightForeArm
										{
											OFFSET -8.494598 0.000000 0.000000
											CHANNELS 3 Xrotation Yrotation Zrotation
											JOINT RightHand
											{
												OFFSET -18.483803 0.000000 0.000001
												CHANNELS 3 Xrotation Yrotation Zrotation
												End Site
												{
													OFFSET 0 0 0
												}
											}
										}
									}
								}
							}
						}
					}
				}
			}
		}
	}
}
MOTION
Frames: 10
Frame Time: 0.03333333
-0.253379 28.730268 0.322948 0.000000 0.000000 0.000000 -3.871104 -48.140922 0.712704 -30.913187 9.623095 22.712474 61.763959 -6.351640 5.125423 -33.039227 -5.063447 -15.694745 -8.150981 -0.432929 -1.326281 0.000000 0.000000 0.000000 -5.419988 -44.754688 1.394583 -16.083878 -10.825425 -35.321514 54.724681 -7.672728 -13.042316 -30.882294 -9.967410 25.671925 -1.262969 1.391430 -0.728096 0.000000 0.000000 0.000000 -3.309421 -46.741573 1.366380 9.648640 7.551915 -1.521702 2.390980 1.678296 -1.234292 0.132162 -1.129244 0.741440 0.000000 0.000000 0.000000 2.410639 1.354723 -0.728301 -0.538381 13.345359 4.195643 7.472239 21.605087 -5.912034 0.000000 0.000000 0.000000 3.690698 1.023870 -0.944911 1.641324 3.996387 -6.329792 -3.383916 -1.217539 -1.775992 -51.510158 3.252259 -50.124463 179.468739 -71.751820 -178.177287 0.000000 0.000000 0.000000 3.744714 1.492617 -0.569836 3.725617 11.126576 -6.244901 -1.264522 -2.096442 -0.134461 -48.326676 29.204622 86.133521 178.545735 65.046746 -178.765093 0.000000 0.000000 0.000000 
-0.174800 28.636044 0.229618 0.000000 0.000000 0.000000 -4.192454 -48.513563 0.598496 -31.614343 8.433155 22.599950 62.443037 -5.717565 4.915583 -31.843950 -4.848616 -15.868741 -7.741768 -0.258165 -2.069770 0.000000 0.000000 0.000000 -5.304120 -44.540002 1.403850 -16.149562 -10.944678 -35.432699 55.571567 -7.254235 -12.992392 -31.724204 -9.654843 25.690681 -0.336842 1.445162 -0.795517 0.000000 0.000000 0.000000 -3.705095 -46.675088 1.157018 9.905957 7.556237 -1.480551 2.534640 1.543991 -1.103968 0.578424 -1.505677 0.952211 0.000000 0.000000 0.000000 2.369512 1.222085 -0.592371 -0.339555 13.307014 3.973886 7.922483 21.521327 -5.811618 0.000000 0.000000 0.000000 3.635182 0.953076 -0.910525 1.649120 4.067201 -6.718491 -3.260079 -1.074649 -1.513170 -51.435402 3.407091 -50.221090 179.653414 -72.068099 -178.098480 0.000000 0.000000 0.000000 3.798205 1.416657 -0.533306 3.868976 11.562201 -6.224126 -1.653203 -2.657475 -0.220367 -50.032437 28.420364 86.340046 178.882586 65.173686 -179.284201 0.000000 0.000000 0.000000 
-0.117988 28.480682 0.190821 0.000000 0.000000 0.000000 -4.846129 -49.273176 0.246033 -33.089364 6.938276 22.459989 64.152709 -4.359796 4.637951 -29.788251 -4.623196 -15.557699 -7.465976 -0.138828 -2.357852 0.000000 0.000000 0.000000 -5.596820 -44.589521 1.051714 -16.504292 -11.138381 -35.407182 57.083535 -6.870199 -12.965900 -32.670106 -9.240305 25.814326 -0.543344 1.472738 -0.679120 0.000000 0.000000 0.000000 -4.566365 -46.910238 0.594281 10.209740 7.557527 -1.315695 2.615466 1.358737 -0.909667 0.928144 -1.468171 1.031957 0.000000 0.000000 0.000000 2.301365 1.030031 -0.464456 -0.352174 13.213233 3.675951 8.440848 21.405900 -5.650320 0.000000 0.000000 0.000000 3.576506 0.800187 -0.818360 1.662415 4.041379 -7.311802 -2.917186 -1.055867 -1.177997 -51.501470 3.863021 -50.490476 179.986768 -73.001560 -177.902085 0.000000 0.000000 0.000000 3.784279 1.244604 -0.439208 3.923358 11.826320 -6.151816 -2.120307 -2.841605 -0.184885 -51.548373 26.808858 85.762055 179.308339 65.843290 179.973518 0.000000 0.000000 0.000000 
-0.042391 28.305834 0.138294 0.000000 0.000000 0.000000 -5.763385 -50.190286 -0.254834 -34.968444 5.077595 22.125428 66.545550 -2.945764 4.542244 -27.078616 -4.698132 -15.686663 -8.013169 -0.085935 -2.047180 0.000000 0.000000 0.000000 -6.331494 -45.027588 0.514455 -17.075712 -11.312895 -35.436456 58.838309 -6.522532 -13.023857 -33.844643 -8.735013 25.817225 -1.529083 1.459133 -0.342407 0.000000 0.000000 0.000000 -5.704676 -47.554622 -0.149444 10.499910 7.594239 -1.060380 2.587089 1.211784 -0.715731 0.992655 -1.010977 0.870072 0.000000 0.000000 0.000000 2.238469 0.853593 -0.387059 -0.577320 13.065572 3.348030 8.853593 21.231421 -5.470847 0.000000 0.000000 0.000000 3.495773 0.649501 -0.655868 1.668078 3.981532 -7.920842 -2.539443 -1.284482 -0.798091 -51.631504 4.344820 -50.845216 -179.653209 -73.824673 -177.703463 0.000000 0.000000 0.000000 3.674477 1.040165 -0.320631 3.883075 11.937163 -6.138979 -2.701663 -2.543190 0.164960 -52.153719 24.943537 84.633639 179.601190 66.726024 179.324540 0.000000 0.000000 0.000000 
0.091082 28.143732 0.112255 0.000000 0.000000 0.000000 -6.976352 -51.106262 -0.842608 -36.705857 3.006892 21.472443 69.262578 -2.156978 4.739001 -24.028040 -5.577232 -17.020819 -9.915127 -0.174553 -1.085290 0.000000 0.000000 0.000000 -7.496156 -45.822052 -0.064790 -17.786608 -11.394337 -35.662231 60.685425 -6.218278 -13.149844 -35.119569 -8.058457 25.568487 -2.240805 1.399766 0.159062 0.000000 0.000000 0.000000 -7.066502 -48.512949 -0.932315 10.763895 7.676825 -0.781586 2.485645 1.147770 -0.568613 0.702893 -0.445893 0.664864 0.000000 0.000000 0.000000 2.225098 0.765351 -0.363222 -0.926769 12.912472 3.043431 9.066372 21.056990 -5.341465 0.000000 0.000000 0.000000 3.409032 0.581845 -0.434528 1.678363 3.961390 -8.475773 -2.028568 -1.454521 -0.526950 -51.767363 4.610148 -51.204255 -179.481279 -74.123767 -177.727574 0.000000 0.000000 0.000000 3.505453 0.860161 -0.234300 3.813270 11.983987 -6.307354 -3.267185 -1.659423 0.551777 -51.709320 23.078410 83.169588 179.643087 67.449040 179.009464 0.000000 0.000000 0.000000 
0.276341 28.014395 0.136200 0.000000 0.000000 0.000000 -8.335260 -51.888790 -1.399872 -38.035794 0.985572 20.543522 72.201896 -2.249747 5.170806 -21.214568 -7.380855 -19.487291 -12.537804 -0.438346 0.175040 0.000000 0.000000 0.000000 -8.890888 -46.980213 -0.586801 -18.682261 -11.305262 -36.237678 62.636940 -5.905294 -13.239656 -35.988892 -7.194943 25.322351 -2.433995 1.335313 0.621624 0.000000 0.000000 0.000000 -8.396564 -49.648044 -1.587878 10.977217 7.789740 -0.493303 2.390789 1.155715 -0.477944 0.310734 0.048592 0.432686 0.000000 0.000000 0.000000 2.293126 0.805826 -0.377428 -1.269441 12.803430 2.735503 9.029955 21.037415 -5.344685 0.000000 0.000000 0.000000 3.326999 0.634176 -0.187905 1.698880 3.953052 -8.951994 -1.587879 -1.663316 -0.281495 -51.784012 4.494057 -51.415465 -179.597789 -73.771801 -178.041530 0.000000 0.000000 0.000000 3.348943 0.760646 -0.210947 3.754170 12.084106 -6.729651 -3.627788 -0.534891 0.989128 -50.520259 21.771071 81.763621 179.366000 67.587953 179.144524 0.000000 0.000000 0.000000 
0.486976 27.893501 0.268423 0.000000 0.000000 0.000000 -9.602921 -52.606790 -1.916738 -38.702137 -0.678172 19.663695 75.130332 -2.861430 5.541615 -19.377073 -9.586952 -22.124241 -14.560386 -0.748629 1.115308 0.000000 0.000000 0.000000 -10.371877 -48.445449 -1.132499 -19.653548 -10.982219 -37.178492 64.249964 -5.420511 -13.348308 -36.101405 -6.340320 25.736132 -2.603852 1.271490 0.826815 0.000000 0.000000 0.000000 -9.759966 -50.879896 -2.199316 11.160885 7.773177 -0.207659 2.369101 1.196370 -0.462179 0.093131 0.008290 0.293003 0.000000 0.000000 0.000000 2.407036 0.936265 -0.409321 -1.481319 12.811365 2.446205 8.813654 21.212582 -5.565174 0.000000 0.000000 0.000000 3.324356 0.766392 -0.002153 1.731219 3.859324 -9.258012 -1.377325 -1.902759 -0.072373 -51.525690 4.146778 -51.282768 -179.904055 -73.055335 -178.495205 0.000000 0.000000 0.000000 3.290433 0.760837 -0.252692 3.740183 12.341932 -7.306505 -3.695771 0.267482 1.544563 -49.295091 21.178695 80.339875 179.154072 66.837356 179.343883 0.000000 0.000000 0.000000 
0.713862 27.784658 0.515085 0.000000 0.000000 0.000000 -10.779565 -53.573535 -2.550053 -38.696877 -1.686268 19.498715 77.655303 -3.462016 5.403476 -18.718791 -11.200602 -24.027999 -14.922599 -0.847731 1.188120 0.000000 0.000000 0.000000 -11.764862 -49.925070 -1.840396 -20.371376 -10.529801 -38.329410 64.987297 -4.625608 -13.595643 -35.522236 -5.499977 26.912390 -2.840458 1.239608 0.625114 0.000000 0.000000 0.000000 -10.989098 -52.096790 -2.850721 11.312671 7.514218 0.108038 2.487954 1.217277 -0.473401 0.132653 -0.306934 0.423973 0.000000 0.000000 0.000000 2.515297 1.075322 -0.406864 -1.505567 13.023187 2.197765 8.483027 21.710484 -6.030012 0.000000 0.000000 0.000000 3.422687 0.905998 0.087115 1.788856 3.722713 -9.348616 -1.264403 -1.893783 -0.100702 -51.180516 4.037371 -50.780489 179.585153 -72.485984 -179.111643 0.000000 0.000000 0.000000 3.359442 0.823239 -0.346694 3.717202 12.761734 -7.749472 -3.644479 0.516558 2.182265 -48.660832 21.435082 78.692863 179.354006 65.325889 179.198264 0.000000 0.000000 0.000000 
0.936723 27.710608 0.844639 0.000000 0.000000 0.000000 -11.786720 -55.101547 -3.461923 -38.312293 -2.062739 20.590229 79.239340 -3.566008 4.526944 -18.620250 -11.562055 -24.715620 -13.631309 -0.669693 0.398078 0.000000 0.000000 0.000000 -12.904463 -51.189228 -2.825460 -20.563242 -10.010889 -39.515660 64.492545 -3.515755 -13.905034 -34.580257 -4.684100 28.282628 -2.627476 1.318812 0.127510 0.000000 0.000000 0.000000 -11.791119 -53.097150 -3.595361 11.330310 6.865382 0.533063 2.684058 1.166654 -0.489038 0.439829 -0.602145 0.619557 0.000000 0.000000 0.000000 2.534750 1.104213 -0.350001 -1.339155 13.432440 2.053992 8.213140 22.477225 -6.737146 0.000000 0.000000 0.000000 3.541911 0.952996 0.070807 1.842289 3.509702 -9.182886 -1.174037 -1.629538 -0.288247 -51.114417 4.572027 -49.884044 179.127858 -72.339059 -179.600576 0.000000 0.000000 0.000000 3.491083 0.866198 -0.431867 3.593607 13.153403 -7.795963 -3.634286 0.215796 2.752296 -48.697285 22.827892 76.902145 179.854112 63.395398 178.746898 0.000000 0.000000 0.000000 
1.111338 27.693287 1.333014 0.000000 0.000000 0.000000 -12.730565 -56.729748 -4.815861 -37.467122 -1.769861 22.994156 79.446800 -2.845126 2.999547 -18.917790 -10.550815 -23.626466 -11.550079 -0.389051 -0.806115 0.000000 0.000000 0.000000 -13.657809 -52.128560 -4.073984 -20.322499 -9.497995 -40.493439 62.691171 -2.227846 -14.119510 -33.259476 -3.980842 29.390635 -1.895636 1.504033 -0.389444 0.000000 0.000000 0.000000 -12.178150 -53.784123 -4.544700 11.118570 5.733867 1.024847 2.822898 0.968059 -0.475362 0.797441 -1.067384 0.939611 0.000000 0.000000 0.000000 2.431056 0.919263 -0.222682 -1.197577 14.050567 2.140371 8.085760 23.310862 -7.568766 0.000000 0.000000 0.000000 3.602068 0.823772 0.011271 1.851667 3.268105 -8.698684 -0.972907 -0.911789 -0.465023 -51.704880 5.782206 -48.676545 178.838504 -72.536466 -179.887867 0.000000 0.000000 0.000000 3.556547 0.759604 -0.460190 3.278535 13.155584 -7.169249 -3.572469 -0.211057 3.060991 -48.981513 24.923828 75.011029 -179.453371 61.598922 178.079397 0.000000 0.000000 0.000000 
